<svg xmlns="http://www.w3.org/2000/svg" xmlns:xlink="http://www.w3.org/1999/xlink" version="1.1" x="0px" y="0px" viewBox="0 0 50 62.5" style="enable-background:new 0 0 50 50;" xml:space="preserve"><g><path fill="#ef5350" d="M19.9,46.9c0,1.1,0.9,2.1,2.1,2.1c1.1,0,2.1-0.9,2.1-2.1V33.7l-4.1-4.1C19.9,35.8,19.9,40.7,19.9,46.9z"/><path fill="#ef5350" d="M25.9,46.9c0,1.1,0.9,2.1,2.1,2.1c1.1,0,2.1-0.9,2.1-2.1c0-5.4,0-12,0-17.5l-4.1,4.1V46.9z"/><path fill="#ef5350" d="M38.3,20l-2.8,1.8c0.2,0.6,0.2,1.1-0.4,1.9l2.8,1.8C39.1,23.9,39.3,22,38.3,20z"/><path fill="#ef5350" d="M34.9,20.8l2.7-1.8c-1.6-2.1-4.2-3.8-5.9-4.7v3.8C32.9,18.9,34.2,19.8,34.9,20.8z"/><path fill="#ef5350" d="M31.7,26.3v3.3c1.3,0.3,4.5-2.1,5.4-3l-2.8-1.9C33.6,25.2,32.8,25.7,31.7,26.3z"/><path fill="#ef5350" d="M14.5,21.8L11.7,20c-1,2-0.8,3.9,0.4,5.6l2.8-1.8C14.3,23,14.3,22.4,14.5,21.8z"/><path fill="#ef5350" d="M12.4,18.9l2.7,1.8c0.7-1,2-1.9,3.2-2.7v-3.8C16.5,15.2,13.9,16.8,12.4,18.9z"/><path fill="#ef5350" d="M12.9,26.5c1,1,4.1,3.3,5.4,3v-3.3c-1.1-0.5-1.9-1.1-2.5-1.6L12.9,26.5z"/><path fill="#ef5350" d="M28,11.7c0.8-1.1,1.4-2.7,1.4-4.5C29.3,3.8,27.4,1,25,1c-2.4,0-4.3,2.8-4.3,6.2c0,1.8,0.5,3.4,1.3,4.5H28z M26.9,4.8   c0.7,0,1.2,0.5,1.2,1.2s-0.5,1.2-1.2,1.2c-0.7,0-1.2-0.5-1.2-1.2S26.2,4.8,26.9,4.8z M23.1,4.8c0.7,0,1.2,0.5,1.2,1.2   s-0.5,1.2-1.2,1.2c-0.7,0-1.2-0.5-1.2-1.2S22.4,4.8,23.1,4.8z"/><path fill="#ef5350" d="M19.9,27.3l5,5l5.1-5.1V13.4H19.9V27.3z M25,18.2c1.7,0,3,1.3,3,3c0,1.7-1.3,3-3,3s-3-1.3-3-3C22,19.5,23.3,18.2,25,18.2z"/><circle fill="#ef5350" cx="25" cy="21.2" r="1.9"/></g></svg>