<svg xmlns="http://www.w3.org/2000/svg" xmlns:xlink="http://www.w3.org/1999/xlink" version="1.1" x="0px" y="0px" viewBox="0 0 50 62.5" style="enable-background:new 0 0 50 50;" xml:space="preserve"><g><path fill="#1976d2" d="M8.3,40.4l0-16.7c0-2.6,1.5-4.9,3.7-6v-3.8c-4.2,1.3-7.3,5.2-7.3,9.8l0,16.8c0.6-0.2,1.2-0.2,1.9-0.2   C7.2,40.2,7.8,40.2,8.3,40.4z"/><path fill="#1976d2" d="M6.7,42C3.5,42,1,44.5,1,47.6h11.3C12.3,44.5,9.8,42,6.7,42z"/><path fill="#1976d2" d="M41.7,23.6l0,16.7c0.5-0.1,1.1-0.2,1.7-0.2c0.7,0,1.3,0.1,1.9,0.2l0-16.8c0-4.6-3.1-8.5-7.3-9.8v3.8   C40.2,18.8,41.7,21,41.7,23.6z"/><path fill="#1976d2" d="M43.3,42L43.3,42c-3.1,0-5.7,2.5-5.7,5.7H49C49,44.5,46.5,42,43.3,42z"/><path fill="#1976d2" d="M25,39.2c-1,0-1.8,0.8-1.8,1.8v5.6c0,1,0.8,1.8,1.8,1.8c1,0,1.8-0.8,1.8-1.8v-5.6C26.8,40,26,39.2,25,39.2z"/><path fill="#1976d2" d="M32.5,9.6c-0.5,0-0.9-0.4-0.9-0.9c0-0.5,0.4-0.9,0.9-0.9h2.4c-1.3-2.7-3.7-4.7-6.6-5.6v8.4h-6.7V2.2   c-3.7,1.2-6.5,4.2-7.5,7.9h3.3c0.5,0,0.9,0.4,0.9,0.9s-0.4,0.9-0.9,0.9h-3.6c0,0.3,0,0.6,0,0.9v1.4h22.3v-1.4   c0-1.1-0.2-2.2-0.5-3.2H32.5z"/><path fill="#1976d2" d="M26.5,1.8c-1.1-0.2-1.9-0.2-3.1,0v7h3.1V1.8z"/><path fill="#1976d2" d="M13.8,34.3h4.1v0.3c0,1.4,1.1,2.5,2.5,2.5h0v2.9c0,0.5,0.4,0.8,0.8,0.8c0.5,0,0.8-0.4,0.8-0.8v-2.9h5.8v2.9   c0,0.5,0.4,0.8,0.8,0.8c0.5,0,0.8-0.4,0.8-0.8v-2.9h0c1.4,0,2.5-1.1,2.5-2.5v-0.3h4.1V16H13.8V34.3z M25,18.7c2.8,0,5,2.3,5,5   s-2.3,5-5,5s-5-2.3-5-5S22.2,18.7,25,18.7z"/><circle fill="#1976d2" cx="25" cy="23.7" r="3.2"/></g></svg>