<svg xmlns="http://www.w3.org/2000/svg" xmlns:xlink="http://www.w3.org/1999/xlink" version="1.1" x="0px" y="0px" viewBox="0 0 100 125" enable-background="new 0 0 100 100" xml:space="preserve"><path d="M63.266,27.267c-3.985-2.301-8.511-3.518-13.088-3.518c-9.348,0-18.055,5.024-22.726,13.111  c-7.226,12.517-2.922,28.581,9.595,35.809c3.983,2.3,8.508,3.516,13.084,3.516c0.001,0,0.001,0,0.001,0  c9.347,0,18.055-5.023,22.726-13.11C80.084,50.557,75.781,34.494,63.266,27.267z M50.178,27.75c3.129,0,6.227,0.683,9.084,1.968  H41.073C43.897,28.448,46.991,27.75,50.178,27.75z M30.917,38.86c0.759-1.314,1.646-2.531,2.636-3.643h6.867  c-0.23,0.276-0.447,0.565-0.631,0.882c-0.656,1.138-0.917,2.397-0.826,3.618H30.45C30.601,39.43,30.754,39.144,30.917,38.86z   M30.201,40.218h8.822c0.282,1.822,1.353,3.506,3.067,4.5H28.574C28.945,43.188,29.485,41.68,30.201,40.218z M39.926,69.675  c-0.295-0.153-0.591-0.303-0.879-0.47c-1.914-1.105-3.597-2.457-5.041-3.988h11.403C43.229,67.214,41.273,68.714,39.926,69.675z   M45.947,64.718H33.551c-1.223-1.379-2.256-2.892-3.09-4.5H50.25C48.806,61.907,47.34,63.41,45.947,64.718z M50.676,59.718H30.203  c-0.7-1.439-1.237-2.95-1.615-4.5h25.438C52.963,56.833,51.83,58.335,50.676,59.718z M55.4,52.994  c-0.34,0.589-0.693,1.161-1.053,1.724H28.467c-0.271-1.231-0.432-2.486-0.49-3.75h28.522C56.153,51.645,55.789,52.322,55.4,52.994z   M57.459,48.968H27.973c0.054-1.253,0.212-2.507,0.483-3.75h14.765c0.653,0.223,1.337,0.351,2.029,0.351c0,0,0,0,0.001,0  c0.702,0,1.384-0.13,2.03-0.351h11.695C58.533,46.45,58.029,47.706,57.459,48.968z M42.715,42.713  c0.111-0.744,0.335-1.771,0.773-2.85v3.319c-0.132-0.06-0.264-0.12-0.39-0.192C42.959,42.91,42.842,42.807,42.715,42.713z   M44.023,43.382v-4.641c0.027-0.05,0.053-0.1,0.081-0.15c0.269-0.466,0.573-0.881,0.884-1.271v6.23  C44.661,43.531,44.338,43.477,44.023,43.382z M45.523,43.551v-6.859c0.332-0.36,0.66-0.683,0.965-0.951v7.64  C46.177,43.474,45.854,43.529,45.523,43.551z M47.023,43.18v-7.85c0.131,0.059,0.263,0.119,0.388,0.191  c0.21,0.121,0.396,0.267,0.577,0.416v6.643C47.693,42.822,47.37,43.023,47.023,43.18z M59.153,44.718h-10.74  c0.944-0.546,1.747-1.333,2.309-2.306c0.403-0.698,0.65-1.442,0.766-2.194h9.027C60.145,41.651,59.695,43.163,59.153,44.718z   M48.523,42.055V36.47c1.148,1.351,1.402,3.322,0.466,4.942C48.855,41.644,48.695,41.854,48.523,42.055z M60.641,39.718h-9.098  c0.116-1.621-0.398-3.24-1.445-4.5H61.58C61.352,36.57,61.046,38.089,60.641,39.718z M61.662,34.718H49.633  c-0.362-0.35-0.767-0.666-1.222-0.929c-0.959-0.554-2.049-0.846-3.15-0.846c-1.653,0-3.219,0.657-4.382,1.775h-6.854  c1.739-1.834,3.771-3.354,6.003-4.5h20.278c0.322,0.166,0.646,0.332,0.96,0.513c0.287,0.166,0.568,0.34,0.846,0.517  C62.021,32.173,61.881,33.352,61.662,34.718z"/></svg>